<?xml version="1.0" standalone="no"?>
<!DOCTYPE svg PUBLIC "-//W3C//DTD SVG 20010904//EN"
 "http://www.w3.org/TR/2001/REC-SVG-20010904/DTD/svg10.dtd">
<svg version="1.0" xmlns="http://www.w3.org/2000/svg"
 width="405.000000pt" height="405.000000pt" viewBox="0 0 405.000000 405.000000"
 preserveAspectRatio="xMidYMid meet">

<g transform="translate(0.000000,405.000000) scale(0.100000,-0.100000)"
fill="#000000" stroke="none">
<path d="M1422 3695 c-110 -31 -218 -117 -266 -214 l-26 -51 -58 0 c-206 0
-385 -141 -432 -338 -12 -52 -9 -182 5 -227 5 -17 0 -23 -32 -34 -196 -68
-356 -246 -407 -452 -20 -82 -21 -226 -1 -304 36 -141 132 -283 247 -368 l66
-48 -29 -69 c-44 -105 -57 -208 -37 -308 38 -191 160 -340 337 -412 62 -25 66
-29 76 -71 38 -146 146 -249 302 -288 57 -14 67 -21 101 -66 80 -105 185 -157
317 -157 93 0 147 17 223 69 60 41 115 111 146 186 20 50 21 69 24 490 l3 437
-128 0 -128 0 -98 -90 -97 -90 -130 0 -129 0 -16 -29 c-49 -96 -198 -122 -281
-49 -48 43 -64 77 -64 143 0 84 35 137 112 170 81 33 178 5 225 -66 l26 -39
107 0 c97 0 109 2 126 21 10 12 54 53 97 90 l77 69 150 0 150 0 0 155 0 155
-448 0 -449 0 -24 -37 c-34 -54 -100 -85 -166 -80 -172 13 -235 228 -97 334
29 21 49 28 98 31 74 4 117 -16 161 -75 l30 -41 435 -3 c239 -3 441 -3 448 -1
9 3 12 45 12 163 l0 159 -156 0 -156 0 -86 81 c-47 44 -96 85 -109 90 -13 5
-62 9 -107 9 l-83 0 -41 -49 c-74 -87 -174 -103 -259 -42 -75 55 -97 164 -48
246 29 50 57 70 118 85 80 21 139 -8 215 -104 12 -15 32 -17 139 -15 l124 2
62 -60 c34 -32 79 -74 100 -91 l38 -33 122 3 122 3 3 413 c2 352 0 422 -14
475 -35 135 -114 232 -241 293 -65 32 -87 37 -162 40 -56 3 -104 -1 -139 -11z"/>
<path d="M2430 3697 c-114 -33 -207 -101 -264 -196 -70 -115 -67 -28 -64
-1547 l3 -1369 32 -67 c58 -123 161 -203 293 -228 141 -27 310 44 385 163 26
40 34 46 75 52 143 21 266 127 315 272 l22 67 67 27 c155 63 272 195 321 364
14 45 16 84 13 169 -4 99 -9 119 -38 185 -29 63 -32 74 -18 82 99 56 193 158
253 277 114 225 74 514 -98 707 -56 64 -173 144 -246 171 -48 17 -52 21 -46
44 13 58 17 160 6 209 -43 203 -226 350 -433 351 l-56 0 -30 53 c-44 78 -115
143 -200 184 -64 31 -87 36 -161 39 -51 2 -104 -1 -131 -9z m237 -127 c85 -37
158 -125 193 -233 l12 -39 52 9 c136 22 238 -7 320 -92 89 -91 110 -213 63
-360 -15 -44 -23 -83 -19 -86 4 -4 41 -16 82 -29 169 -50 279 -139 352 -287
42 -85 43 -89 47 -204 3 -130 -7 -177 -62 -282 -39 -75 -142 -172 -235 -220
-39 -21 -72 -41 -72 -44 0 -4 18 -37 40 -75 51 -85 68 -132 76 -211 11 -109
-31 -242 -103 -327 -42 -50 -139 -108 -220 -132 -70 -20 -73 -22 -79 -57 -22
-126 -52 -185 -117 -229 -50 -34 -91 -48 -170 -58 -56 -6 -59 -8 -78 -49 -83
-177 -314 -220 -451 -83 -74 75 -73 62 -76 551 l-3 437 73 0 73 -1 90 -84 90
-85 80 -2 c44 -1 95 0 114 1 54 4 75 -6 95 -43 22 -42 102 -86 153 -86 19 0
51 9 72 20 126 64 144 223 34 307 -32 25 -45 28 -108 28 -63 0 -76 -3 -108
-28 -20 -15 -44 -41 -52 -58 l-16 -29 -107 0 -107 0 -95 90 -95 89 -92 1 -93
0 0 165 0 165 390 0 c215 0 390 -4 390 -8 0 -23 75 -92 116 -108 40 -15 53
-16 92 -5 91 24 142 88 142 178 0 99 -75 175 -172 176 -72 1 -124 -26 -157
-80 l-26 -42 -388 -1 -387 0 2 166 3 167 87 -2 87 -2 98 90 98 91 106 0 107 0
22 -35 c93 -150 332 -87 333 88 1 102 -60 172 -161 184 -66 7 -129 -22 -166
-77 l-26 -40 -130 0 -129 0 -94 -90 -95 -90 -71 0 -71 0 0 430 c0 400 1 433
19 480 38 100 129 178 233 200 57 11 143 3 195 -20z m357 -921 c32 -25 34 -64
4 -96 -27 -28 -57 -29 -86 -3 -31 29 -29 73 4 99 15 12 32 21 39 21 7 0 24 -9
39 -21z m196 -631 c26 -28 25 -56 -2 -85 -40 -43 -108 -18 -108 39 0 63 68 91
110 46z m-190 -618 c41 -41 14 -110 -43 -110 -41 0 -67 26 -67 66 0 57 69 85
110 44z"/>
<path d="M1050 2640 c-24 -24 -25 -48 -4 -78 19 -27 64 -29 87 -4 53 58 -28
137 -83 82z"/>
<path d="M865 2015 c-29 -28 -31 -42 -9 -73 30 -44 114 -18 114 36 0 18 -46
62 -65 62 -9 0 -27 -11 -40 -25z"/>
<path d="M1047 1392 c-48 -53 19 -127 79 -87 31 20 34 79 5 95 -30 15 -66 12
-84 -8z"/>
</g>
</svg>
